<svg id="Layer_1" data-name="Layer 1" xmlns="http://www.w3.org/2000/svg" xmlns:xlink="http://www.w3.org/1999/xlink" viewBox="0 0 343.89 65.65"><defs><style>.cls-1{fill:#fff;}.cls-2{fill:#58595b;}.cls-3{fill:url(#linear-gradient);}.cls-4{fill:url(#linear-gradient-2);}.cls-5{font-size:27.49px;fill:#59595b;font-family:MyriadPro-Regular, Myriad Pro;}</style><linearGradient id="linear-gradient" x1="11.57" y1="16.15" x2="3.27" y2="10.94" gradientUnits="userSpaceOnUse"><stop offset="0" stop-color="#007090"/><stop offset="0.04" stop-color="#007691"/><stop offset="0.23" stop-color="#008c97"/><stop offset="0.43" stop-color="#009b9a"/><stop offset="0.66" stop-color="#00a49c"/><stop offset="1" stop-color="#00a79d"/></linearGradient><linearGradient id="linear-gradient-2" x1="324.91" y1="46.56" x2="332.38" y2="46.56" xlink:href="#linear-gradient"/></defs><title>Logo-Membersy-TMsymbol</title><polygon class="cls-1" points="828.14 101.39 828.14 101.39 828.14 101.39 828.14 101.39 828.14 101.39"/><path class="cls-2" d="M43,61.33h5.17V66h.12a4.79,4.79,0,0,1,.95-1.56,9.83,9.83,0,0,1,2-1.78A12.37,12.37,0,0,1,54,61.17a10.54,10.54,0,0,1,3.6-.59,9.37,9.37,0,0,1,9.11,5.49,9.38,9.38,0,0,1,4-4.12A11.1,11.1,0,0,1,76,60.58a11.94,11.94,0,0,1,5.54,1.12,9,9,0,0,1,3.39,3,11.47,11.47,0,0,1,1.69,4.18,24.75,24.75,0,0,1,.46,4.84V90.91H81.51V74.43a22.69,22.69,0,0,0-.22-3.24,7.55,7.55,0,0,0-.89-2.75,5.12,5.12,0,0,0-1.91-1.9,6.4,6.4,0,0,0-3.26-.72c-2.67,0-4.57.83-5.72,2.5a11,11,0,0,0-1.73,6.43V90.91H62.24V75.43A32.73,32.73,0,0,0,62,71.56a9.32,9.32,0,0,0-.86-3,4.77,4.77,0,0,0-1.85-2,6.26,6.26,0,0,0-3.23-.72,7.34,7.34,0,0,0-2.87.59,6.88,6.88,0,0,0-2.43,1.78,8.77,8.77,0,0,0-1.66,3,13.73,13.73,0,0,0-.61,4.34V90.91H43Z" transform="translate(-26.19 -40.24)"/><path class="cls-2" d="M102.75,78.18a7.4,7.4,0,0,0,.83,3.52,8.76,8.76,0,0,0,2.18,2.72,10.22,10.22,0,0,0,3.14,1.75,11.27,11.27,0,0,0,3.7.62,8.18,8.18,0,0,0,4.49-1.22,14.62,14.62,0,0,0,3.51-3.21l4.18,3.24q-4.61,6.06-12.92,6.06a15.9,15.9,0,0,1-6.25-1.19,13.58,13.58,0,0,1-4.74-3.27,14.75,14.75,0,0,1-3-4.93,17.88,17.88,0,0,1-1-6.15A16.37,16.37,0,0,1,98,70,15.27,15.27,0,0,1,101.12,65a14.45,14.45,0,0,1,4.77-3.28,15.12,15.12,0,0,1,6-1.18A14.36,14.36,0,0,1,118.48,62a13.07,13.07,0,0,1,4.4,3.59,14.19,14.19,0,0,1,2.49,5,21.21,21.21,0,0,1,.77,5.65v2Zm17.48-4.49a12.31,12.31,0,0,0-.58-3.44,7.69,7.69,0,0,0-1.57-2.71,7.27,7.27,0,0,0-2.62-1.81,9.41,9.41,0,0,0-3.66-.66,8.8,8.8,0,0,0-3.73.78,9.08,9.08,0,0,0-2.86,2,9.35,9.35,0,0,0-1.82,2.78,7.75,7.75,0,0,0-.64,3Z" transform="translate(-26.19 -40.24)"/><path class="cls-2" d="M135.93,61.33h5.17V66h.12a4.79,4.79,0,0,1,.95-1.56,9.83,9.83,0,0,1,2-1.78A12.37,12.37,0,0,1,147,61.17a10.54,10.54,0,0,1,3.6-.59,9.37,9.37,0,0,1,9.11,5.49,9.43,9.43,0,0,1,4-4.12,11.1,11.1,0,0,1,5.23-1.37,11.94,11.94,0,0,1,5.54,1.12,8.94,8.94,0,0,1,3.39,3,11.47,11.47,0,0,1,1.69,4.18,24.75,24.75,0,0,1,.46,4.84V90.91h-5.54V74.43a24.27,24.27,0,0,0-.21-3.24,7.75,7.75,0,0,0-.9-2.75,5.09,5.09,0,0,0-1.9-1.9,6.47,6.47,0,0,0-3.27-.72c-2.67,0-4.57.83-5.72,2.5a11,11,0,0,0-1.73,6.43V90.91h-5.54V75.43a32.73,32.73,0,0,0-.21-3.87,9.32,9.32,0,0,0-.86-3,4.77,4.77,0,0,0-1.85-2,6.26,6.26,0,0,0-3.23-.72,7.25,7.25,0,0,0-2.86.59,6.83,6.83,0,0,0-2.44,1.78,8.77,8.77,0,0,0-1.66,3,13.73,13.73,0,0,0-.61,4.34V90.91h-5.54Z" transform="translate(-26.19 -40.24)"/><path class="cls-2" d="M191.51,43.73h5.54V65.57h.13a10.16,10.16,0,0,1,4.24-3.65,13.46,13.46,0,0,1,5.91-1.34,15.3,15.3,0,0,1,6.13,1.18A14.07,14.07,0,0,1,218.14,65a14.72,14.72,0,0,1,3,4.93,17.61,17.61,0,0,1,1,6.15,17.31,17.31,0,0,1-1,6.11,14.93,14.93,0,0,1-3,4.93,13.6,13.6,0,0,1-4.68,3.31,15.3,15.3,0,0,1-6.13,1.19,13.45,13.45,0,0,1-5.75-1.31,10.57,10.57,0,0,1-4.4-3.68h-.13v4.24h-5.54Zm15.15,42.69a9.91,9.91,0,0,0,4-.78,8.75,8.75,0,0,0,3-2.13,9.3,9.3,0,0,0,1.91-3.24,13,13,0,0,0,0-8.3,9.44,9.44,0,0,0-1.91-3.25,8.86,8.86,0,0,0-3-2.12,10.67,10.67,0,0,0-8,0,8.86,8.86,0,0,0-3,2.12A9.44,9.44,0,0,0,197.73,72a13,13,0,0,0,0,8.3,9.3,9.3,0,0,0,1.91,3.24,8.75,8.75,0,0,0,3,2.13A9.93,9.93,0,0,0,206.66,86.42Z" transform="translate(-26.19 -40.24)"/><path class="cls-2" d="M236.45,78.18a7.52,7.52,0,0,0,.83,3.52,8.65,8.65,0,0,0,2.19,2.72,10.06,10.06,0,0,0,3.13,1.75,11.31,11.31,0,0,0,3.7.62,8.18,8.18,0,0,0,4.49-1.22,14.62,14.62,0,0,0,3.51-3.21l4.19,3.24q-4.62,6.06-12.93,6.06a15.9,15.9,0,0,1-6.25-1.19,13.58,13.58,0,0,1-4.74-3.27,14.56,14.56,0,0,1-3-4.93,17.65,17.65,0,0,1-1.05-6.15A16.37,16.37,0,0,1,231.68,70,15.27,15.27,0,0,1,234.82,65a14.45,14.45,0,0,1,4.77-3.28,15.12,15.12,0,0,1,6-1.18A14.33,14.33,0,0,1,252.18,62a13.07,13.07,0,0,1,4.4,3.59,14.19,14.19,0,0,1,2.49,5,21.21,21.21,0,0,1,.77,5.65v2Zm17.48-4.49a12.31,12.31,0,0,0-.58-3.44,7.69,7.69,0,0,0-1.57-2.71,7.27,7.27,0,0,0-2.62-1.81,9.41,9.41,0,0,0-3.66-.66,8.8,8.8,0,0,0-3.73.78,9.08,9.08,0,0,0-2.86,2,9.31,9.31,0,0,0-1.81,2.78,7.59,7.59,0,0,0-.65,3Z" transform="translate(-26.19 -40.24)"/><path class="cls-2" d="M269.63,61.33h5.54v4.55h.12a8,8,0,0,1,1.48-2.15,9.64,9.64,0,0,1,2.06-1.65,11.2,11.2,0,0,1,2.49-1.1,9.46,9.46,0,0,1,2.71-.4,7.61,7.61,0,0,1,2.46.37L286.25,67a12.73,12.73,0,0,0-1.36-.31,6.86,6.86,0,0,0-1.35-.13,8.1,8.1,0,0,0-6.22,2.31q-2.15,2.31-2.15,7.18V90.91h-5.54Z" transform="translate(-26.19 -40.24)"/><path class="cls-2" d="M311.06,68.75a8.69,8.69,0,0,0-2.44-2.09,6.92,6.92,0,0,0-3.54-.84,6.66,6.66,0,0,0-3.41.84,2.7,2.7,0,0,0-1.45,2.47,2.85,2.85,0,0,0,.83,2.12,6.58,6.58,0,0,0,2,1.31,11.27,11.27,0,0,0,2.43.75l2.22.44A24.93,24.93,0,0,1,311,74.81a9.28,9.28,0,0,1,2.7,1.62,7.11,7.11,0,0,1,1.79,2.43,8.54,8.54,0,0,1,.65,3.5,8.24,8.24,0,0,1-1.05,4.27,8.9,8.9,0,0,1-2.71,2.91,11.44,11.44,0,0,1-3.79,1.62,18.73,18.73,0,0,1-4.27.5A16.62,16.62,0,0,1,298,90.53a11.47,11.47,0,0,1-4.9-4.11l4.19-3.5a17.37,17.37,0,0,0,3,2.44,7.49,7.49,0,0,0,4.07,1.06,11.14,11.14,0,0,0,2.12-.22,6.74,6.74,0,0,0,1.91-.69,4.2,4.2,0,0,0,1.35-1.19,2.69,2.69,0,0,0,.53-1.65,2.89,2.89,0,0,0-.77-2.06,5.62,5.62,0,0,0-1.85-1.28,13.84,13.84,0,0,0-2.28-.75c-.8-.18-1.51-.34-2.12-.46-1.19-.29-2.32-.63-3.39-1a10.44,10.44,0,0,1-2.83-1.5,6.81,6.81,0,0,1-2-2.37,7.75,7.75,0,0,1-.74-3.56,8.08,8.08,0,0,1,1-4,8.31,8.31,0,0,1,2.52-2.84,11.53,11.53,0,0,1,3.57-1.69,15,15,0,0,1,4-.56,14.66,14.66,0,0,1,5.67,1.12,9,9,0,0,1,4.31,3.75Z" transform="translate(-26.19 -40.24)"/><path class="cls-2" d="M322.57,61.33H329l8.64,23.09h.12L346,61.33h5.91L338.08,97.27a38.46,38.46,0,0,1-1.53,3.53,11.06,11.06,0,0,1-1.9,2.72,7.77,7.77,0,0,1-2.67,1.74,10.27,10.27,0,0,1-3.83.63,21.08,21.08,0,0,1-2.49-.16,9,9,0,0,1-2.42-.65l.68-5.12a8.48,8.48,0,0,0,3.3.68,6,6,0,0,0,2.17-.34,4.28,4.28,0,0,0,1.53-1A5.67,5.67,0,0,0,332,97.77c.28-.58.57-1.24.86-2l1.79-4.68Z" transform="translate(-26.19 -40.24)"/><polygon class="cls-3" points="0 27.98 5.21 24.66 5.21 8.8 18.2 8.8 21.82 3.49 0 3.49 0 27.98"/><rect class="cls-4" x="324.91" y="42.45" width="7.47" height="8.22"/><text class="cls-5" transform="translate(332.38 23.01)">®</text></svg>